<?xml version="1.0"?>
<svg xmlns="http://www.w3.org/2000/svg" xmlns:xlink="http://www.w3.org/1999/xlink" xmlns:svgjs="http://svgjs.com/svgjs" version="1.1" width="512" height="512" x="0" y="0" viewBox="0 0 512 512" style="enable-background:new 0 0 512 512" xml:space="preserve" class=""><g><g xmlns="http://www.w3.org/2000/svg"><path d="m416.009 54.33c0-29.958-24.373-54.33-54.331-54.33h-121.351c-29.958 0-54.331 24.372-54.331 54.33v45.675h40.006v20.986c0 32.246-10.655 64.212-30.003 90.009-38.693 51.592-60.003 115.52-60.003 180.009v20.986h-40.005v45.675c0 29.958 24.373 54.33 54.331 54.33h121.352c29.958 0 54.331-24.372 54.331-54.33v-45.675h-40.006v-20.986c0-32.246 10.655-64.212 30.003-90.009 38.693-51.592 60.003-115.52 60.003-180.009v-20.986h40.006v-45.675zm-250.012 336.679c0-58.041 19.179-115.576 54.003-162.009 23.217-30.955 36.003-69.313 36.003-108.009v-20.986h30v20.986c0 45.144-14.917 89.895-42.003 126.009-30.955 41.273-48.003 92.417-48.003 144.009v20.986h-30zm130.006 66.661c0 13.416-10.915 24.33-24.331 24.33h-121.351c-13.416 0-24.331-10.914-24.331-24.33v-15.675h170.013zm50-336.679c0 58.041-19.179 115.576-54.003 162.009-23.217 30.955-36.003 69.313-36.003 108.009v20.986h-30v-20.986c0-45.144 14.917-89.895 42.003-126.009 30.955-41.273 48.003-92.417 48.003-144.009v-20.986h30zm40.006-50.986h-170.012v-15.675c0-13.416 10.915-24.33 24.331-24.33h121.352c13.416 0 24.331 10.914 24.331 24.33v15.675z" fill="#33a5b5" data-original="#000000" style="" class=""/></g></g></svg>
